<?xml version="1.0" encoding="UTF-8" standalone="no"?>
<!-- Created with Inkscape (http://www.inkscape.org/) -->

<svg
   xmlns:dc="http://purl.org/dc/elements/1.1/"
   xmlns:cc="http://creativecommons.org/ns#"
   xmlns:rdf="http://www.w3.org/1999/02/22-rdf-syntax-ns#"
   xmlns:svg="http://www.w3.org/2000/svg"
   xmlns="http://www.w3.org/2000/svg"
   xmlns:sodipodi="http://sodipodi.sourceforge.net/DTD/sodipodi-0.dtd"
   xmlns:inkscape="http://www.inkscape.org/namespaces/inkscape"
   width="210mm"
   height="297mm"
   viewBox="0 0 744.09448819 1052.3622047"
   id="svg2"
   version="1.1"
   inkscape:version="0.91 r13725"
   sodipodi:docname="A.svg">
  <defs
     id="defs4">
    <pattern
       y="0"
       x="0"
       height="6"
       width="6"
       patternUnits="userSpaceOnUse"
       id="EMFhbasepattern" />
    <pattern
       y="0"
       x="0"
       height="6"
       width="6"
       patternUnits="userSpaceOnUse"
       id="EMFhbasepattern-8" />
  </defs>
  <sodipodi:namedview
     id="base"
     pagecolor="#ffffff"
     bordercolor="#666666"
     borderopacity="1.0"
     inkscape:pageopacity="0.0"
     inkscape:pageshadow="2"
     inkscape:zoom="3.959798"
     inkscape:cx="414.93323"
     inkscape:cy="563.55086"
     inkscape:document-units="px"
     inkscape:current-layer="layer1"
     showgrid="false"
     inkscape:window-width="1920"
     inkscape:window-height="1057"
     inkscape:window-x="-8"
     inkscape:window-y="-8"
     inkscape:window-maximized="1"
     showborder="false" />
  <metadata
     id="metadata7">
    <rdf:RDF>
      <cc:Work
         rdf:about="">
        <dc:format>image/svg+xml</dc:format>
        <dc:type
           rdf:resource="http://purl.org/dc/dcmitype/StillImage" />
        <dc:title></dc:title>
      </cc:Work>
    </rdf:RDF>
  </metadata>
  <g
     inkscape:label="Ebene 1"
     inkscape:groupmode="layer"
     id="layer1">
    <path
       inkscape:connector-curvature="0"
       id="path4163"
       d="m 355.27873,382.27996 0,0.0847 c -9.35567,0.4445 -12.89042,6.92145 -12.89042,14.68956 l 0,48.55588 -26.69097,0 16.10772,13.99117 10.58325,0 0,46.92622 0,1.88383 -19.02869,0 16.10772,13.99088 2.94214,0 0,0.0423 c 10.24458,-0.0423 13.80058,-6.13834 13.80058,-14.20255 l 0.0635,-48.21739 c 31.68622,2.159 51.79455,13.63133 54.03822,54.41922 l 0,8.00072 c 10.28671,-0.0423 13.84271,-6.1595 13.84271,-14.24489 l 0.14817,-111.94976 0,0 c 0,-0.0212 0,-0.0212 0,-0.0423 l 0,-0.1905 0,0 c -0.0847,-9.96938 -5.9055,-13.73702 -13.90621,-13.73702 l -55.11772,0 z m 1.05833,13.82172 53.97472,0.127 0,72.64355 c -12.5095,-14.32984 -32.30033,-20.8915 -54.03822,-22.71184 l 0.0635,-50.05871 z"
       style="fill:#d96565;fill-opacity:1;fill-rule:evenodd;stroke:none" />
  </g>
</svg>
