<?xml version="1.0" encoding="UTF-8" standalone="no"?>
<!-- Created with Inkscape (http://www.inkscape.org/) -->

<svg
   xmlns:dc="http://purl.org/dc/elements/1.1/"
   xmlns:cc="http://creativecommons.org/ns#"
   xmlns:rdf="http://www.w3.org/1999/02/22-rdf-syntax-ns#"
   xmlns:svg="http://www.w3.org/2000/svg"
   xmlns="http://www.w3.org/2000/svg"
   xmlns:sodipodi="http://sodipodi.sourceforge.net/DTD/sodipodi-0.dtd"
   xmlns:inkscape="http://www.inkscape.org/namespaces/inkscape"
   width="210mm"
   height="297mm"
   viewBox="0 0 744.09448819 1052.3622047"
   id="svg2"
   version="1.1"
   inkscape:version="0.91 r13725"
   sodipodi:docname="B.svg">
  <defs
     id="defs4">
    <pattern
       y="0"
       x="0"
       height="6"
       width="6"
       patternUnits="userSpaceOnUse"
       id="EMFhbasepattern" />
    <pattern
       y="0"
       x="0"
       height="6"
       width="6"
       patternUnits="userSpaceOnUse"
       id="EMFhbasepattern-8" />
  </defs>
  <sodipodi:namedview
     id="base"
     pagecolor="#ffffff"
     bordercolor="#666666"
     borderopacity="1.0"
     inkscape:pageopacity="0.0"
     inkscape:pageshadow="2"
     inkscape:zoom="0.49497475"
     inkscape:cx="446.00717"
     inkscape:cy="584.62094"
     inkscape:document-units="px"
     inkscape:current-layer="layer1"
     showgrid="false"
     inkscape:window-width="1920"
     inkscape:window-height="1057"
     inkscape:window-x="-8"
     inkscape:window-y="-8"
     inkscape:window-maximized="1"
     showborder="false" />
  <metadata
     id="metadata7">
    <rdf:RDF>
      <cc:Work
         rdf:about="">
        <dc:format>image/svg+xml</dc:format>
        <dc:type
           rdf:resource="http://purl.org/dc/dcmitype/StillImage" />
        <dc:title></dc:title>
      </cc:Work>
    </rdf:RDF>
  </metadata>
  <g
     inkscape:label="Ebene 1"
     inkscape:groupmode="layer"
     id="layer1">
    <path
       style="fill:#23acff;fill-opacity:1;fill-rule:evenodd;stroke:none;stroke-width:1px;stroke-linecap:butt;stroke-linejoin:miter;stroke-opacity:1"
       d="m 305.82272,242.33596 0.0156,0.90429 c -35.0728,0.52723 -48.29493,23.86923 -48.29493,52.12305 l 0,172.19141 -39.95898,0 39.95898,34.70898 0,186.54297 c 0,28.26016 13.22789,51.6079 48.31837,52.125 l 0.002,0.1875 245.33203,0 c 28.57858,0 52.14844,-13.51251 52.14844,-49.49805 C 610.17813,494.26284 507.72015,498.2487 450.74657,486.459 527.38084,432.61705 549.88368,363.04534 540.56689,290.13088 l -0.86719,0.0195 c -0.73307,-34.71218 -23.98915,-47.81445 -52.11328,-47.81445 z m 1.16602,49.28125 c 62.08725,0.0278 124.17446,0.096 186.26172,0.16601 8.68628,63.91708 -19.30661,121.81079 -109.70899,180.07422 l -76.70507,-4.30273 c 0.0295,-58.64559 0.0862,-117.29187 0.15234,-175.9375 z m -0.16602,225.51172 6.34766,0 c 132.59048,0 267.80553,7.90119 238.11133,174.54882 -81.44654,0.0916 -162.89337,0.17759 -244.33984,0.17383 -0.10213,-58.24094 -0.1276,-116.48176 -0.11915,-174.72265 z"
       id="path4144-7-2"
       inkscape:connector-curvature="0"
       sodipodi:nodetypes="ccscccsccsccccscccccccsccc" />
  </g>
</svg>
