<?xml version="1.0" encoding="UTF-8" standalone="no"?>
<!-- Created with Inkscape (http://www.inkscape.org/) -->

<svg
   xmlns:dc="http://purl.org/dc/elements/1.1/"
   xmlns:cc="http://creativecommons.org/ns#"
   xmlns:rdf="http://www.w3.org/1999/02/22-rdf-syntax-ns#"
   xmlns:svg="http://www.w3.org/2000/svg"
   xmlns="http://www.w3.org/2000/svg"
   xmlns:sodipodi="http://sodipodi.sourceforge.net/DTD/sodipodi-0.dtd"
   xmlns:inkscape="http://www.inkscape.org/namespaces/inkscape"
   width="210mm"
   height="297mm"
   viewBox="0 0 744.09448819 1052.3622047"
   id="svg6028"
   version="1.1"
   inkscape:version="0.91 r13725"
   sodipodi:docname="N.svg">
  <defs
     id="defs6030" />
  <sodipodi:namedview
     id="base"
     pagecolor="#ffffff"
     bordercolor="#666666"
     borderopacity="1.0"
     inkscape:pageopacity="0.0"
     inkscape:pageshadow="2"
     inkscape:zoom="0.35"
     inkscape:cx="-90.714286"
     inkscape:cy="520"
     inkscape:document-units="px"
     inkscape:current-layer="layer1"
     showgrid="false"
     showborder="false"
     inkscape:window-width="1920"
     inkscape:window-height="1057"
     inkscape:window-x="-8"
     inkscape:window-y="-8"
     inkscape:window-maximized="1" />
  <metadata
     id="metadata6033">
    <rdf:RDF>
      <cc:Work
         rdf:about="">
        <dc:format>image/svg+xml</dc:format>
        <dc:type
           rdf:resource="http://purl.org/dc/dcmitype/StillImage" />
        <dc:title></dc:title>
      </cc:Work>
    </rdf:RDF>
  </metadata>
  <g
     inkscape:label="Ebene 1"
     inkscape:groupmode="layer"
     id="layer1">
    <path
       inkscape:connector-curvature="0"
       style="fill:#d96565;fill-opacity:1;fill-rule:evenodd;stroke:none;stroke-width:1px;stroke-linecap:butt;stroke-linejoin:miter;stroke-opacity:1"
       d="m -501.10824,397.71434 c -36.34937,0.0896 -48.94726,21.73392 -48.94726,50.3125 l -0.0742,65.36914 -40.91407,46.19141 c 14.52346,0 28.11976,0.55444 40.86133,1.63476 l -0.37305,332.91992 c 35.98554,0 49.49805,-23.57176 49.49805,-52.15039 l 0,-273.02343 c 110.26695,27.0362 132.43945,110.95919 132.43945,231.02734 l 0,38.51172 47.3086,54.46679 -0.002,2.17774 c 0.63265,0 1.24253,-0.0246 1.86133,-0.0391 l 0.40625,0.46875 0,-0.47657 c 34.2768,-0.97968 47.23047,-24.13696 47.23047,-52.10351 l 0,-387.89844 -0.0508,-56.37891 c -36.34938,0.0896 -48.94727,21.73588 -48.94727,50.31446 l -0.33789,300.86719 c -10.06907,-115.2165 -58.0715,-214.51702 -179.90814,-234.59762 l 0,-61.21484 -0.0508,-56.37891 z"
       id="path4142-3-4" />
  </g>
</svg>
