<?xml version="1.0" encoding="UTF-8" standalone="no"?>
<!-- Created with Inkscape (http://www.inkscape.org/) -->

<svg
   xmlns:dc="http://purl.org/dc/elements/1.1/"
   xmlns:cc="http://creativecommons.org/ns#"
   xmlns:rdf="http://www.w3.org/1999/02/22-rdf-syntax-ns#"
   xmlns:svg="http://www.w3.org/2000/svg"
   xmlns="http://www.w3.org/2000/svg"
   xmlns:sodipodi="http://sodipodi.sourceforge.net/DTD/sodipodi-0.dtd"
   xmlns:inkscape="http://www.inkscape.org/namespaces/inkscape"
   width="210mm"
   height="297mm"
   viewBox="0 0 744.09448819 1052.3622047"
   id="svg2"
   version="1.1"
   inkscape:version="0.91 r13725"
   sodipodi:docname="Q.svg">
  <defs
     id="defs4">
    <pattern
       y="0"
       x="0"
       height="6"
       width="6"
       patternUnits="userSpaceOnUse"
       id="EMFhbasepattern" />
    <pattern
       y="0"
       x="0"
       height="6"
       width="6"
       patternUnits="userSpaceOnUse"
       id="EMFhbasepattern-8" />
  </defs>
  <sodipodi:namedview
     id="base"
     pagecolor="#ffffff"
     bordercolor="#666666"
     borderopacity="1.0"
     inkscape:pageopacity="0.0"
     inkscape:pageshadow="2"
     inkscape:zoom="0.7"
     inkscape:cx="506.81651"
     inkscape:cy="645.39405"
     inkscape:document-units="px"
     inkscape:current-layer="layer1"
     showgrid="false"
     inkscape:window-width="1920"
     inkscape:window-height="1057"
     inkscape:window-x="-8"
     inkscape:window-y="-8"
     inkscape:window-maximized="1"
     showborder="false" />
  <metadata
     id="metadata7">
    <rdf:RDF>
      <cc:Work
         rdf:about="">
        <dc:format>image/svg+xml</dc:format>
        <dc:type
           rdf:resource="http://purl.org/dc/dcmitype/StillImage" />
        <dc:title></dc:title>
      </cc:Work>
    </rdf:RDF>
  </metadata>
  <g
     inkscape:label="Ebene 1"
     inkscape:groupmode="layer"
     id="layer1">
    <path
       inkscape:connector-curvature="0"
       style="fill:#d96565;fill-opacity:1;fill-rule:evenodd;stroke:none;stroke-width:1px;stroke-linecap:butt;stroke-linejoin:miter;stroke-opacity:1"
       d="m 343.13031,259.51889 -0.041,0.0449 C 231.86892,261.3006 170.94768,318.746 141.62446,398.93491 l -22.82422,-26.27735 0,95.71289 c 0,13.35517 0.42657,26.61808 1.3125,39.70704 -0.88584,13.08831 -1.3125,26.35056 -1.3125,39.70507 l 0,95.71289 22.82422,-26.27734 c 29.32322,80.1889 90.24446,137.6343 201.46484,139.37109 l 0.041,0.0449 c 0.86596,0 1.72398,-0.009 2.58399,-0.0156 0.86041,0.007 1.71761,0.0156 2.58398,0.0156 l 0.041,-0.0449 c 67.10733,-1.04763 115.89619,-22.38344 150.48828,-56.75195 l 54.99414,55.33594 c 25.44561,-25.44561 18.33315,-51.66686 -1.875,-71.875 l -22.65625,-22.65625 c 8.08861,-13.48219 14.8874,-28.03085 20.51563,-43.42188 l 22.82226,26.27539 0,-95.71289 c 0,-13.35451 -0.42666,-26.61677 -1.3125,-39.70507 0.88593,-13.08896 1.3125,-26.35187 1.3125,-39.70704 l 0,-95.71289 -22.82226,26.27539 C 520.48256,318.74441 459.55996,261.30012 348.3393,259.56381 l -0.041,-0.0449 c -0.86637,0 -1.72357,0.009 -2.58398,0.0156 -0.86001,-0.007 -1.71803,-0.0156 -2.58399,-0.0156 z m 2.58399,50.00977 c 134.11092,12.81318 170.36678,86.08476 176.36523,198.54883 -2.47553,46.41055 -10.11467,86.13787 -27.64648,117.70507 l -16.05664,-16.05664 -39.90235,-39.83008 c -25.63954,25.76624 -19.24131,49.97939 0.9668,70.1875 l 23.9043,24.05274 C 436.72144,686.92862 398.92748,701.54028 345.7143,706.62436 211.60415,693.81125 175.34784,620.54044 169.34907,508.07749 175.34752,395.61343 211.60338,322.34184 345.7143,309.52866 Z"
       id="path4142-3-4" />
  </g>
</svg>
