<?xml version="1.0" encoding="UTF-8" standalone="no"?>
<!-- Created with Inkscape (http://www.inkscape.org/) -->

<svg
   xmlns:dc="http://purl.org/dc/elements/1.1/"
   xmlns:cc="http://creativecommons.org/ns#"
   xmlns:rdf="http://www.w3.org/1999/02/22-rdf-syntax-ns#"
   xmlns:svg="http://www.w3.org/2000/svg"
   xmlns="http://www.w3.org/2000/svg"
   xmlns:sodipodi="http://sodipodi.sourceforge.net/DTD/sodipodi-0.dtd"
   xmlns:inkscape="http://www.inkscape.org/namespaces/inkscape"
   width="210mm"
   height="297mm"
   viewBox="0 0 744.09448819 1052.3622047"
   id="svg4195"
   version="1.1"
   inkscape:version="0.91 r13725"
   sodipodi:docname="Z.svg">
  <defs
     id="defs4197" />
  <sodipodi:namedview
     id="base"
     pagecolor="#ffffff"
     bordercolor="#666666"
     borderopacity="1.0"
     inkscape:pageopacity="0.0"
     inkscape:pageshadow="2"
     inkscape:zoom="0.35"
     inkscape:cx="-90.714286"
     inkscape:cy="520"
     inkscape:document-units="px"
     inkscape:current-layer="layer1"
     showgrid="false"
     showborder="false"
     inkscape:window-width="1920"
     inkscape:window-height="1057"
     inkscape:window-x="-8"
     inkscape:window-y="-8"
     inkscape:window-maximized="1" />
  <metadata
     id="metadata4200">
    <rdf:RDF>
      <cc:Work
         rdf:about="">
        <dc:format>image/svg+xml</dc:format>
        <dc:type
           rdf:resource="http://purl.org/dc/dcmitype/StillImage" />
        <dc:title></dc:title>
      </cc:Work>
    </rdf:RDF>
  </metadata>
  <g
     inkscape:label="Ebene 1"
     inkscape:groupmode="layer"
     id="layer1">
    <path
       style="fill:#d96565;fill-opacity:1;fill-rule:evenodd;stroke:none;stroke-width:1px;stroke-linecap:butt;stroke-linejoin:miter;stroke-opacity:1"
       d="m -321.69174,843.02237 c -23.23629,-0.47209 -47.10816,0.7306 -71.11633,3.26394 l -95.13795,10.03914 62.15835,41.22268 38.28056,-4.04058 c 54.70461,-5.77244 102.36592,-6.30482 141.70439,4.64084 l -3.5794,7.70827 -64.361,138.89284 c -23.37623,-7.3657 -47.43648,-9.8697 -71.7662,-8.3953 -13.33217,0.8078 -26.74377,2.8105 -40.1699,5.862 l 39.66377,40.2503 c 17.14242,-0.5811 34.16441,1.8093 51.24405,7.6662 l -91.99605,198.533 c -10.20308,22.0315 -9.25219,44.7293 13.56139,59.3855 4.63927,2.7268 7.38433,3.1002 10.99446,4.516 48.48078,13.2808 104.22939,14.6936 160.73582,8.731 l 95.13601,-10.0391 -62.15841,-41.2208 -38.28052,4.0388 c -52.16587,5.5045 -97.92919,6.2483 -136.17656,-3.1855 l 91.6008,-198.2324 c 23.9021,16.6624 48.20081,40.7272 73.36823,73.5682 l 13.52553,-60.0256 c -20.38419,-26.5992 -42.20446,-46.5766 -65.01558,-60.8881 l 67.34177,-145.73297 c 11.46938,-24.76586 8.88876,-48.37211 -23.32928,-62.62344 l -1.05094,-0.35821 c -29.39651,-8.71247 -61.62218,-12.89499 -95.17701,-13.57671 z"
       id="path4142-3-4"
       inkscape:connector-curvature="0"
       sodipodi:nodetypes="ssccccccsccccccscccccccccccs" />
  </g>
</svg>
