<?xml version="1.0" encoding="UTF-8" standalone="no"?>
<!-- Created with Inkscape (http://www.inkscape.org/) -->

<svg
   xmlns:dc="http://purl.org/dc/elements/1.1/"
   xmlns:cc="http://creativecommons.org/ns#"
   xmlns:rdf="http://www.w3.org/1999/02/22-rdf-syntax-ns#"
   xmlns:svg="http://www.w3.org/2000/svg"
   xmlns="http://www.w3.org/2000/svg"
   xmlns:sodipodi="http://sodipodi.sourceforge.net/DTD/sodipodi-0.dtd"
   xmlns:inkscape="http://www.inkscape.org/namespaces/inkscape"
   width="210mm"
   height="297mm"
   viewBox="0 0 744.09448819 1052.3622047"
   id="svg4195"
   version="1.1"
   inkscape:version="0.91 r13725"
   sodipodi:docname="a.svg">
  <defs
     id="defs4197" />
  <sodipodi:namedview
     id="base"
     pagecolor="#ffffff"
     bordercolor="#666666"
     borderopacity="1.0"
     inkscape:pageopacity="0.0"
     inkscape:pageshadow="2"
     inkscape:zoom="0.35"
     inkscape:cx="-90.714286"
     inkscape:cy="520"
     inkscape:document-units="px"
     inkscape:current-layer="layer1"
     showgrid="false"
     showborder="false"
     inkscape:window-width="1920"
     inkscape:window-height="1057"
     inkscape:window-x="-8"
     inkscape:window-y="-8"
     inkscape:window-maximized="1" />
  <metadata
     id="metadata4200">
    <rdf:RDF>
      <cc:Work
         rdf:about="">
        <dc:format>image/svg+xml</dc:format>
        <dc:type
           rdf:resource="http://purl.org/dc/dcmitype/StillImage" />
        <dc:title></dc:title>
      </cc:Work>
    </rdf:RDF>
  </metadata>
  <g
     inkscape:label="Ebene 1"
     inkscape:groupmode="layer"
     id="layer1">
    <path
       inkscape:connector-curvature="0"
       style="fill:#23acff;fill-opacity:1;fill-rule:evenodd;stroke:none;stroke-width:1px;stroke-linecap:butt;stroke-linejoin:miter;stroke-opacity:1"
       d="m -443.84126,528.18274 c -127.53588,0.41 -301.22629,50.5276 -243.21288,151.00977 33.37989,65.70169 76.87747,123.26628 131.29101,155.19141 44.73016,26.24376 96.83834,35.16028 156.76757,17.02929 2.14017,25.35676 16.26372,45.19211 49.29297,45.13086 l -0.2832,-67.45312 37.12305,-61.73828 c -12.54624,6.37414 -25.01102,11.92683 -37.3125,16.73632 l -0.85352,-203.65625 c -0.053,-28.57855 -12.69154,-50.20048 -49.04101,-50.22265 l 0,0.0117 c -13.58905,-1.40495 -28.33842,-2.08868 -43.77149,-2.03907 z m -3.0625,47.50196 c 16.53802,0.0361 32.42791,1.2782 46.88281,3.93164 l 0.006,6.97265 0.59375,212.95118 c -54.68926,12.83526 -102.90564,9.35554 -135.10742,-8.35352 -43.809,-24.09237 -76.67288,-72.14398 -108.38475,-134.5625 -22.62656,-39.19033 97.99032,-81.15368 196.00975,-80.93945 z"
       id="path4144-7-7-5-7-5-6" />
  </g>
</svg>
