<?xml version="1.0" encoding="UTF-8" standalone="no"?>
<!-- Created with Inkscape (http://www.inkscape.org/) -->

<svg
   xmlns:dc="http://purl.org/dc/elements/1.1/"
   xmlns:cc="http://creativecommons.org/ns#"
   xmlns:rdf="http://www.w3.org/1999/02/22-rdf-syntax-ns#"
   xmlns:svg="http://www.w3.org/2000/svg"
   xmlns="http://www.w3.org/2000/svg"
   xmlns:sodipodi="http://sodipodi.sourceforge.net/DTD/sodipodi-0.dtd"
   xmlns:inkscape="http://www.inkscape.org/namespaces/inkscape"
   width="210mm"
   height="297mm"
   viewBox="0 0 744.09448819 1052.3622047"
   id="svg4195"
   version="1.1"
   inkscape:version="0.91 r13725"
   sodipodi:docname="e.svg">
  <defs
     id="defs4197" />
  <sodipodi:namedview
     id="base"
     pagecolor="#ffffff"
     bordercolor="#666666"
     borderopacity="1.0"
     inkscape:pageopacity="0.0"
     inkscape:pageshadow="2"
     inkscape:zoom="0.49497475"
     inkscape:cx="-338.16728"
     inkscape:cy="32.145315"
     inkscape:document-units="px"
     inkscape:current-layer="layer1"
     showgrid="false"
     showborder="false"
     inkscape:window-width="1920"
     inkscape:window-height="1057"
     inkscape:window-x="-8"
     inkscape:window-y="-8"
     inkscape:window-maximized="1" />
  <metadata
     id="metadata4200">
    <rdf:RDF>
      <cc:Work
         rdf:about="">
        <dc:format>image/svg+xml</dc:format>
        <dc:type
           rdf:resource="http://purl.org/dc/dcmitype/StillImage" />
        <dc:title></dc:title>
      </cc:Work>
    </rdf:RDF>
  </metadata>
  <g
     inkscape:label="Ebene 1"
     inkscape:groupmode="layer"
     id="layer1">
    <path
       inkscape:connector-curvature="0"
       style="fill:#23acff;fill-opacity:1;fill-rule:evenodd;stroke:none;stroke-width:1px;stroke-linecap:butt;stroke-linejoin:miter;stroke-opacity:1"
       d="m -685.33311,629.40946 c -124.7762,0.40112 -293.7176,48.38484 -246.6426,144.56054 -27.1331,0.91445 -49.017,14.66883 -49.1016,49.31446 l 76.5938,0.008 c 29.433,47.40878 65.0482,87.57062 107.2285,112.31836 56.0754,32.90013 123.7453,38.57045 203.8848,-2.14453 l 39.0156,-64.88672 c -88.4962,44.96052 -173.2061,50.48192 -221.666,23.83184 -26.8541,-14.76818 -49.5918,-38.54958 -70.4766,-69.11328 l 177.5137,0.0195 40.7519,62.36328 13.0157,-94.82226 c 6.6338,-48.33069 7.5916,-96.2588 -0.209,-139.74414 -1.7063,-9.51163 -1.7104,-8.15103 -4.2871,-17.19532 l -21.2363,-2.38672 0,-0.0254 c -0.5146,-0.0541 -1.0446,-0.0983 -1.5625,-0.15039 l -0.9512,-0.10742 -0.031,0.0117 c -13.0542,-1.27386 -27.1299,-1.89885 -41.8379,-1.85156 z m -3.0625,47.5 c 9.9765,0.0218 19.7095,0.49247 29.043,1.43554 2.5692,28.81859 0.7312,60.91534 -3.6915,95.98438 l -7.8652,-0.0254 -205.084,-0.3086 c -2.8175,-5.26789 -5.6191,-10.64718 -8.4121,-16.14453 -22.6265,-39.19033 97.9904,-81.15563 196.0098,-80.9414 z"
       id="path4144-7-7-5-7-5-6" />
  </g>
</svg>
