<?xml version="1.0" encoding="UTF-8" standalone="no"?>
<!-- Created with Inkscape (http://www.inkscape.org/) -->

<svg
   xmlns:dc="http://purl.org/dc/elements/1.1/"
   xmlns:cc="http://creativecommons.org/ns#"
   xmlns:rdf="http://www.w3.org/1999/02/22-rdf-syntax-ns#"
   xmlns:svg="http://www.w3.org/2000/svg"
   xmlns="http://www.w3.org/2000/svg"
   xmlns:sodipodi="http://sodipodi.sourceforge.net/DTD/sodipodi-0.dtd"
   xmlns:inkscape="http://www.inkscape.org/namespaces/inkscape"
   width="210mm"
   height="297mm"
   viewBox="0 0 744.09448819 1052.3622047"
   id="svg4195"
   version="1.1"
   inkscape:version="0.91 r13725"
   sodipodi:docname="f.svg">
  <defs
     id="defs4197" />
  <sodipodi:namedview
     id="base"
     pagecolor="#ffffff"
     bordercolor="#666666"
     borderopacity="1.0"
     inkscape:pageopacity="0.0"
     inkscape:pageshadow="2"
     inkscape:zoom="0.49497475"
     inkscape:cx="-338.16728"
     inkscape:cy="32.145315"
     inkscape:document-units="px"
     inkscape:current-layer="layer1"
     showgrid="false"
     showborder="false"
     inkscape:window-width="1920"
     inkscape:window-height="1057"
     inkscape:window-x="-8"
     inkscape:window-y="-8"
     inkscape:window-maximized="1" />
  <metadata
     id="metadata4200">
    <rdf:RDF>
      <cc:Work
         rdf:about="">
        <dc:format>image/svg+xml</dc:format>
        <dc:type
           rdf:resource="http://purl.org/dc/dcmitype/StillImage" />
        <dc:title></dc:title>
      </cc:Work>
    </rdf:RDF>
  </metadata>
  <g
     inkscape:label="Ebene 1"
     inkscape:groupmode="layer"
     id="layer1">
    <path
       style="fill:#d96565;fill-opacity:1;fill-rule:evenodd;stroke:none;stroke-width:1px;stroke-linecap:butt;stroke-linejoin:miter;stroke-opacity:1"
       d="m -723.2306,668.49279 c -14.06622,-0.0565 -27.91367,0.53729 -41.43555,1.86132 l 0,-0.10351 c -36.34947,0.0222 -48.98802,21.6441 -49.04102,50.22265 l -0.4414,148.11329 -69.73633,-0.61329 c -0.0667,35.98544 23.47807,49.54076 52.05664,49.59376 l 17.53516,0.13671 -0.73829,247.81058 c 35.98544,0.067 49.54075,-23.48 49.59375,-52.0586 l 0.36133,-195.37112 25.78906,0.20117 56.37891,0.0547 c -0.0222,-36.34947 -21.64215,-48.98801 -50.2207,-49.04101 l -31.85547,-0.2793 0.26367,-142.39062 0.008,-8.63086 c 22.67385,-2.07758 47.38428,-1.4115 73.98291,1.10928 l 39.18311,-45.30655 c -24.16344,-3.31663 -48.22642,-5.21444 -71.68359,-5.30859 z"
       id="path4142-3-4"
       inkscape:connector-curvature="0"
       sodipodi:nodetypes="cccccccccscccccccccsc" />
  </g>
</svg>
