<?xml version="1.0" encoding="UTF-8" standalone="no"?>
<!-- Created with Inkscape (http://www.inkscape.org/) -->

<svg
   xmlns:dc="http://purl.org/dc/elements/1.1/"
   xmlns:cc="http://creativecommons.org/ns#"
   xmlns:rdf="http://www.w3.org/1999/02/22-rdf-syntax-ns#"
   xmlns:svg="http://www.w3.org/2000/svg"
   xmlns="http://www.w3.org/2000/svg"
   xmlns:sodipodi="http://sodipodi.sourceforge.net/DTD/sodipodi-0.dtd"
   xmlns:inkscape="http://www.inkscape.org/namespaces/inkscape"
   width="210mm"
   height="297mm"
   viewBox="0 0 744.09448819 1052.3622047"
   id="svg4195"
   version="1.1"
   inkscape:version="0.91 r13725"
   sodipodi:docname="g.svg">
  <defs
     id="defs4197" />
  <sodipodi:namedview
     id="base"
     pagecolor="#ffffff"
     bordercolor="#666666"
     borderopacity="1.0"
     inkscape:pageopacity="0.0"
     inkscape:pageshadow="2"
     inkscape:zoom="0.7"
     inkscape:cx="-859.66908"
     inkscape:cy="188.65547"
     inkscape:document-units="px"
     inkscape:current-layer="layer1"
     showgrid="false"
     showborder="false"
     inkscape:window-width="1920"
     inkscape:window-height="1057"
     inkscape:window-x="-8"
     inkscape:window-y="-8"
     inkscape:window-maximized="1" />
  <metadata
     id="metadata4200">
    <rdf:RDF>
      <cc:Work
         rdf:about="">
        <dc:format>image/svg+xml</dc:format>
        <dc:type
           rdf:resource="http://purl.org/dc/dcmitype/StillImage" />
        <dc:title></dc:title>
      </cc:Work>
    </rdf:RDF>
  </metadata>
  <g
     inkscape:label="Ebene 1"
     inkscape:groupmode="layer"
     id="layer1">
    <path
       style="fill:#23acff;fill-opacity:1;fill-rule:evenodd;stroke:none;stroke-width:1px;stroke-linecap:butt;stroke-linejoin:miter;stroke-opacity:1"
       d="m -290.82812,490.95312 c -33.02925,-0.0613 -47.15279,19.77416 -49.29297,45.13086 -59.92922,-18.131 -112.03742,-9.2144 -156.76758,17.0293 -54.41355,31.92515 -97.91113,89.48972 -131.29102,155.19141 -58.0134,100.48217 115.67701,150.59976 243.21289,151.00976 15.29186,0.0492 29.90882,-0.62488 43.39453,-2.0039 l -0.42578,152.95705 c -0.46694,12.6575 -6.53158,21.3387 -17.08398,23.9512 -66.96284,20.4375 -124.37479,30.0809 -172.11328,15.2246 -40.04208,-12.4611 -81.20999,-52.76683 -111.40625,-112.91801 -23.91251,-47.63391 -3.58552,-83.45731 12.0039,-110.45898 -40.59797,10.87819 -71.32511,66.18294 -56.83789,120.25 32.15322,84.00289 87.27135,127.45739 139.84375,148.38279 58.61519,23.3306 132.37437,8.4853 202.85938,-13.0273 18.358,-4.5451 30.9197,-12.606 39.07422,-23.3008 8.96028,-9.0656 12.60637,-22.3717 12.63476,-37.6797 l 0.0156,-3.748 c 0.014,-0.5689 0.0332,-1.1354 0.0391,-1.709 l -0.0312,0 1.30078,-310.65042 -0.0254,0 0.42383,-101.17188 c 12.30148,4.80949 24.76626,10.36219 37.3125,16.73633 l -37.12305,-61.73828 z m -112.5254,89.29883 c 19.44122,-0.031 40.58913,2.49076 62.80664,7.70508 l -0.45117,161.83203 c -0.18711,2.24409 -0.29092,4.52727 -0.29492,6.84766 l -0.14258,51.29297 c -14.37845,2.61751 -30.16464,3.84691 -46.59375,3.88281 -98.01943,0.21423 -218.63631,-41.74912 -196.00976,-80.93945 31.71187,-62.41852 64.57576,-110.47013 108.38476,-134.5625 19.11981,-10.51476 43.88671,-16.01321 72.30078,-16.0586 z"
       id="path4144-7-7-5-7-5-6"
       inkscape:connector-curvature="0"
       sodipodi:nodetypes="ccscscccssccsccccccccccccsccccscss" />
  </g>
</svg>
