<?xml version="1.0" encoding="UTF-8" standalone="no"?>
<!-- Created with Inkscape (http://www.inkscape.org/) -->

<svg
   xmlns:dc="http://purl.org/dc/elements/1.1/"
   xmlns:cc="http://creativecommons.org/ns#"
   xmlns:rdf="http://www.w3.org/1999/02/22-rdf-syntax-ns#"
   xmlns:svg="http://www.w3.org/2000/svg"
   xmlns="http://www.w3.org/2000/svg"
   xmlns:sodipodi="http://sodipodi.sourceforge.net/DTD/sodipodi-0.dtd"
   xmlns:inkscape="http://www.inkscape.org/namespaces/inkscape"
   width="210mm"
   height="297mm"
   viewBox="0 0 744.09448819 1052.3622047"
   id="svg6067"
   version="1.1"
   inkscape:version="0.91 r13725"
   sodipodi:docname="h.svg">
  <defs
     id="defs6069" />
  <sodipodi:namedview
     id="base"
     pagecolor="#ffffff"
     bordercolor="#666666"
     borderopacity="1.0"
     inkscape:pageopacity="0.0"
     inkscape:pageshadow="2"
     inkscape:zoom="0.35"
     inkscape:cx="-90.714286"
     inkscape:cy="520"
     inkscape:document-units="px"
     inkscape:current-layer="layer1"
     showgrid="false"
     showborder="false"
     inkscape:window-width="1920"
     inkscape:window-height="1057"
     inkscape:window-x="-8"
     inkscape:window-y="-8"
     inkscape:window-maximized="1" />
  <metadata
     id="metadata6072">
    <rdf:RDF>
      <cc:Work
         rdf:about="">
        <dc:format>image/svg+xml</dc:format>
        <dc:type
           rdf:resource="http://purl.org/dc/dcmitype/StillImage" />
        <dc:title></dc:title>
      </cc:Work>
    </rdf:RDF>
  </metadata>
  <g
     inkscape:label="Ebene 1"
     inkscape:groupmode="layer"
     id="layer1">
    <path
       style="fill:#d96565;fill-opacity:1;fill-rule:evenodd;stroke:none;stroke-width:1px;stroke-linecap:butt;stroke-linejoin:miter;stroke-opacity:1"
       d="M 255.44922 278.6582 L 256.77539 724.37891 C 256.82839 752.95741 269.46694 774.57936 305.81641 774.60156 L 305.76172 718.22266 L 305.56055 609.21289 C 322.39147 540.00888 356.80394 479.01829 382.86523 497.20898 C 435.65086 529.99853 475.64159 562.71444 493.61523 603.28711 C 513.497 648.16711 502.17223 722.65532 455.68359 797.49414 L 516.03125 767.92578 C 558.12981 700.15398 558.26125 639.88259 533.43164 587.79297 C 509.33782 537.247 461.73985 494.40488 406.17773 459.89062 C 365.58328 431.55583 331.21421 451.46602 305.34375 492.29883 L 305.04492 330.7168 C 304.99192 302.13823 291.43466 278.59147 255.44922 278.6582 z "
       id="path4142-3-4-6-7-4-3" />
  </g>
</svg>
