<?xml version="1.0" encoding="UTF-8" standalone="no"?>
<!-- Created with Inkscape (http://www.inkscape.org/) -->

<svg
   xmlns:dc="http://purl.org/dc/elements/1.1/"
   xmlns:cc="http://creativecommons.org/ns#"
   xmlns:rdf="http://www.w3.org/1999/02/22-rdf-syntax-ns#"
   xmlns:svg="http://www.w3.org/2000/svg"
   xmlns="http://www.w3.org/2000/svg"
   xmlns:sodipodi="http://sodipodi.sourceforge.net/DTD/sodipodi-0.dtd"
   xmlns:inkscape="http://www.inkscape.org/namespaces/inkscape"
   width="210mm"
   height="297mm"
   viewBox="0 0 744.09448819 1052.3622047"
   id="svg6067"
   version="1.1"
   inkscape:version="0.91 r13725"
   sodipodi:docname="w.svg">
  <defs
     id="defs6069" />
  <sodipodi:namedview
     id="base"
     pagecolor="#ffffff"
     bordercolor="#666666"
     borderopacity="1.0"
     inkscape:pageopacity="0.0"
     inkscape:pageshadow="2"
     inkscape:zoom="0.9899495"
     inkscape:cx="-415.93631"
     inkscape:cy="539.95709"
     inkscape:document-units="px"
     inkscape:current-layer="layer1"
     showgrid="false"
     showborder="false"
     inkscape:window-width="1920"
     inkscape:window-height="1057"
     inkscape:window-x="-8"
     inkscape:window-y="-8"
     inkscape:window-maximized="1" />
  <metadata
     id="metadata6072">
    <rdf:RDF>
      <cc:Work
         rdf:about="">
        <dc:format>image/svg+xml</dc:format>
        <dc:type
           rdf:resource="http://purl.org/dc/dcmitype/StillImage" />
        <dc:title></dc:title>
      </cc:Work>
    </rdf:RDF>
  </metadata>
  <g
     inkscape:label="Ebene 1"
     inkscape:groupmode="layer"
     id="layer1">
    <path
       style="fill:#d96565;fill-opacity:1;fill-rule:evenodd;stroke:none;stroke-width:1px;stroke-linecap:butt;stroke-linejoin:miter;stroke-opacity:1"
       d="M -55.248047 341.25391 C 11.085171 415.09799 38.344137 495.49105 25.144531 549.19727 C 13.211641 597.74911 -24.69527 641.93038 -76.779297 688.7168 C -95.779638 707.71713 -128.79559 678.18452 -157.75195 631.22461 C -134.51624 584.38674 -117.4323 531.69445 -110.625 488.67578 L -158.125 472.18945 C -159.98659 504.40852 -170.72008 542.06612 -185.70898 577.25 C -201.23948 541.37932 -212.42577 502.72799 -214.33008 469.76953 L -261.83008 486.25781 C -254.89398 530.09039 -237.28022 583.95661 -213.36914 631.44922 C -242.64039 679.67113 -276.38256 710.42799 -295.67578 691.13477 C -347.7598 644.34835 -385.66672 600.16707 -397.59961 551.61523 C -410.79921 497.90901 -383.54025 417.51596 -317.20703 343.67188 L -389.98047 364.56445 C -450.04968 431.43547 -462.08793 498.26752 -444.82227 560.94727 C -428.06819 621.76958 -383.72204 678.68235 -328.89844 727.92969 C -280.06602 776.76211 -227.22531 741.68413 -185.40234 679.33398 C -143.8443 740.15571 -91.750716 773.70579 -43.556641 725.51172 C 11.266956 676.26438 55.613107 619.35161 72.367188 558.5293 C 89.632846 495.84955 77.594596 429.0175 17.525391 362.14648 L -55.248047 341.25391 z "
       id="path4142-3-4-6-7-4-3-8-7" />
  </g>
</svg>
