<?xml version="1.0" encoding="UTF-8" standalone="no"?>
<!-- Created with Inkscape (http://www.inkscape.org/) -->

<svg
   xmlns:dc="http://purl.org/dc/elements/1.1/"
   xmlns:cc="http://creativecommons.org/ns#"
   xmlns:rdf="http://www.w3.org/1999/02/22-rdf-syntax-ns#"
   xmlns:svg="http://www.w3.org/2000/svg"
   xmlns="http://www.w3.org/2000/svg"
   xmlns:sodipodi="http://sodipodi.sourceforge.net/DTD/sodipodi-0.dtd"
   xmlns:inkscape="http://www.inkscape.org/namespaces/inkscape"
   width="210mm"
   height="297mm"
   viewBox="0 0 744.09448819 1052.3622047"
   id="svg4195"
   version="1.1"
   inkscape:version="0.91 r13725"
   sodipodi:docname="z.svg">
  <defs
     id="defs4197" />
  <sodipodi:namedview
     id="base"
     pagecolor="#ffffff"
     bordercolor="#666666"
     borderopacity="1.0"
     inkscape:pageopacity="0.0"
     inkscape:pageshadow="2"
     inkscape:zoom="0.7"
     inkscape:cx="-476.20107"
     inkscape:cy="228.76195"
     inkscape:document-units="px"
     inkscape:current-layer="layer1"
     showgrid="false"
     showborder="false"
     inkscape:window-width="1920"
     inkscape:window-height="1057"
     inkscape:window-x="-8"
     inkscape:window-y="-8"
     inkscape:window-maximized="1" />
  <metadata
     id="metadata4200">
    <rdf:RDF>
      <cc:Work
         rdf:about="">
        <dc:format>image/svg+xml</dc:format>
        <dc:type
           rdf:resource="http://purl.org/dc/dcmitype/StillImage" />
        <dc:title></dc:title>
      </cc:Work>
    </rdf:RDF>
  </metadata>
  <g
     inkscape:label="Ebene 1"
     inkscape:groupmode="layer"
     id="layer1">
    <path
       style="fill:#d96565;fill-opacity:1;fill-rule:evenodd;stroke:none;stroke-width:1px;stroke-linecap:butt;stroke-linejoin:miter;stroke-opacity:1"
       d="m -353.36115,894.0611 c -23.23541,-0.51403 -47.10941,0.64553 -71.12211,3.13559 l -95.15593,9.86747 62.08386,41.33478 38.2878,-3.97152 c 54.71494,-5.67371 102.37714,-6.12008 141.69579,4.89655 l -3.59327,7.70182 -40.60417,85.96791 c -23.36291,-7.4079 -47.41861,-9.9553 -71.75098,-8.5247 -13.33359,0.7837 -26.74877,2.7622 -40.1804,5.7895 l 39.59109,40.3217 c 17.14344,-0.5501 34.16106,1.871 51.23014,7.7587 l -52.22099,110.0864 c -10.24284,22.0131 -9.33288,44.7125 13.45419,59.4099 4.63434,2.7352 7.3787,3.1136 10.98632,4.5358 48.45671,13.3683 104.20274,14.8818 160.71977,9.0211 l 95.15399,-9.8674 -62.08394,-41.3329 -38.28775,3.9697 c -52.17571,5.4103 -97.94029,6.0715 -136.17057,-3.4313 l 51.82519,-109.7865 c 23.87198,16.7055 48.12724,40.8141 73.23532,73.7005 l 13.63387,-60.0011 c -20.33616,-26.636 -42.12037,-46.6526 -64.90563,-61.0053 l 43.59732,-92.8027 c 11.51405,-24.74512 8.97604,-48.35598 -23.21623,-62.66544 l -1.0503,-0.3601 c -29.38073,-8.76551 -78.78628,-15.33958 -95.15235,-13.74845 z"
       id="path4142-3-4"
       inkscape:connector-curvature="0"
       sodipodi:nodetypes="ccccccccsccccccsccccccccccccc" />
  </g>
</svg>
