<?xml version="1.0" encoding="UTF-8" standalone="no"?>
<!-- Created with Inkscape (http://www.inkscape.org/) -->

<svg
   xmlns:dc="http://purl.org/dc/elements/1.1/"
   xmlns:cc="http://creativecommons.org/ns#"
   xmlns:rdf="http://www.w3.org/1999/02/22-rdf-syntax-ns#"
   xmlns:svg="http://www.w3.org/2000/svg"
   xmlns="http://www.w3.org/2000/svg"
   xmlns:sodipodi="http://sodipodi.sourceforge.net/DTD/sodipodi-0.dtd"
   xmlns:inkscape="http://www.inkscape.org/namespaces/inkscape"
   width="210mm"
   height="297mm"
   viewBox="0 0 744.09448819 1052.3622047"
   id="svg6028"
   version="1.1"
   inkscape:version="0.91 r13725"
   sodipodi:docname="o.svg">
  <defs
     id="defs6030" />
  <sodipodi:namedview
     id="base"
     pagecolor="#ffffff"
     bordercolor="#666666"
     borderopacity="1.0"
     inkscape:pageopacity="0.0"
     inkscape:pageshadow="2"
     inkscape:zoom="0.7"
     inkscape:cx="-407.21222"
     inkscape:cy="318.58163"
     inkscape:document-units="px"
     inkscape:current-layer="layer1"
     showgrid="false"
     showborder="false"
     inkscape:window-width="1920"
     inkscape:window-height="1057"
     inkscape:window-x="-8"
     inkscape:window-y="-8"
     inkscape:window-maximized="1" />
  <metadata
     id="metadata6033">
    <rdf:RDF>
      <cc:Work
         rdf:about="">
        <dc:format>image/svg+xml</dc:format>
        <dc:type
           rdf:resource="http://purl.org/dc/dcmitype/StillImage" />
        <dc:title></dc:title>
      </cc:Work>
    </rdf:RDF>
  </metadata>
  <g
     inkscape:label="Ebene 1"
     inkscape:groupmode="layer"
     id="layer1">
    <path
       inkscape:connector-curvature="0"
       style="fill:#d96565;fill-opacity:1;fill-rule:evenodd;stroke:none;stroke-width:1px;stroke-linecap:butt;stroke-linejoin:miter;stroke-opacity:1"
       d="m -385.44112,556.66175 -0.041,0.0381 c -111.22039,1.47228 -172.14163,50.16832 -201.46485,118.14388 l -22.82422,-22.27512 0,81.13511 c 0,11.32108 0.42657,22.56396 1.3125,33.65937 -0.88584,11.09487 -1.3125,22.33718 -1.3125,33.6577 l 0,81.13511 22.82422,-22.2751 c 29.32322,67.97554 90.24446,116.67158 201.46484,118.14385 l 0.041,0.0381 c 0.86596,0 1.72398,-0.008 2.58399,-0.0132 0.86041,0.006 1.71761,0.0132 2.58398,0.0132 l 0.041,-0.0381 c 111.22066,-1.47185 172.14326,-50.16695 201.4668,-118.1422 l 22.82226,22.27345 0,-81.13511 c 0,-11.32052 -0.42666,-22.56283 -1.3125,-33.6577 0.88593,-11.09541 1.3125,-22.33829 1.3125,-33.65937 l 0,-81.13511 -22.82226,22.27345 c -29.32351,-67.97523 -90.24611,-116.67034 -201.46677,-118.1422 l -0.041,-0.0381 c -0.86637,0 -1.72357,0.008 -2.58398,0.0132 -0.86001,-0.006 -1.71803,-0.0132 -2.58399,-0.0132 z m 2.58399,42.39291 c 134.11092,10.86164 170.36678,72.97343 176.36523,168.30839 -5.99876,95.33402 -42.25508,157.44515 -176.36523,168.30673 -134.11014,-10.86158 -170.36646,-72.97271 -176.36523,-168.30673 5.99846,-95.33496 42.25432,-157.44675 176.36523,-168.30839 z"
       id="path4142-3-4" />
  </g>
</svg>
