<?xml version="1.0" encoding="UTF-8" standalone="no"?>
<!-- Created with Inkscape (http://www.inkscape.org/) -->

<svg
   xmlns:dc="http://purl.org/dc/elements/1.1/"
   xmlns:cc="http://creativecommons.org/ns#"
   xmlns:rdf="http://www.w3.org/1999/02/22-rdf-syntax-ns#"
   xmlns:svg="http://www.w3.org/2000/svg"
   xmlns="http://www.w3.org/2000/svg"
   xmlns:sodipodi="http://sodipodi.sourceforge.net/DTD/sodipodi-0.dtd"
   xmlns:inkscape="http://www.inkscape.org/namespaces/inkscape"
   width="210mm"
   height="297mm"
   viewBox="0 0 744.09448819 1052.3622047"
   id="svg6028"
   version="1.1"
   inkscape:version="0.91 r13725"
   sodipodi:docname="O.svg">
  <defs
     id="defs6030" />
  <sodipodi:namedview
     id="base"
     pagecolor="#ffffff"
     bordercolor="#666666"
     borderopacity="1.0"
     inkscape:pageopacity="0.0"
     inkscape:pageshadow="2"
     inkscape:zoom="0.35"
     inkscape:cx="-90.714286"
     inkscape:cy="520"
     inkscape:document-units="px"
     inkscape:current-layer="layer1"
     showgrid="false"
     showborder="false"
     inkscape:window-width="1920"
     inkscape:window-height="1057"
     inkscape:window-x="-8"
     inkscape:window-y="-8"
     inkscape:window-maximized="1" />
  <metadata
     id="metadata6033">
    <rdf:RDF>
      <cc:Work
         rdf:about="">
        <dc:format>image/svg+xml</dc:format>
        <dc:type
           rdf:resource="http://purl.org/dc/dcmitype/StillImage" />
        <dc:title></dc:title>
      </cc:Work>
    </rdf:RDF>
  </metadata>
  <g
     inkscape:label="Ebene 1"
     inkscape:groupmode="layer"
     id="layer1">
    <path
       inkscape:connector-curvature="0"
       style="fill:#d96565;fill-opacity:1;fill-rule:evenodd;stroke:none;stroke-width:1px;stroke-linecap:butt;stroke-linejoin:miter;stroke-opacity:1"
       d="m -385.44112,480.94746 -0.041,0.0449 c -111.22039,1.73681 -172.14163,59.18221 -201.46485,139.37112 l -22.82422,-26.27735 0,95.71289 c 0,13.35517 0.42657,26.61809 1.3125,39.70704 -0.88584,13.08831 -1.3125,26.35056 -1.3125,39.70507 l 0,95.71289 22.82422,-26.27734 c 29.32322,80.1889 90.24446,137.6343 201.46484,139.37109 l 0.041,0.0449 c 0.86596,0 1.72398,-0.009 2.58399,-0.0156 0.86041,0.007 1.71761,0.0156 2.58398,0.0156 l 0.041,-0.0449 c 111.22066,-1.7363 172.14326,-59.18059 201.4668,-139.36914 l 22.82226,26.27539 0,-95.71289 c 0,-13.35451 -0.42666,-26.61676 -1.3125,-39.70507 0.88593,-13.08895 1.3125,-26.35187 1.3125,-39.70704 l 0,-95.71289 -22.82226,26.27539 c -29.32351,-80.18854 -90.24611,-137.63283 -201.46677,-139.36914 l -0.041,-0.0449 c -0.86637,0 -1.72357,0.009 -2.58398,0.0156 -0.86001,-0.007 -1.71803,-0.0156 -2.58399,-0.0156 z m 2.58399,50.00977 c 134.11092,12.81318 170.36678,86.08477 176.36523,198.54883 -5.99876,112.46295 -42.25508,185.73376 -176.36523,198.54687 -134.11014,-12.81311 -170.36646,-86.08392 -176.36523,-198.54687 5.99846,-112.46406 42.25432,-185.73565 176.36523,-198.54883 z"
       id="path4142-3-4" />
  </g>
</svg>
