<?xml version="1.0" encoding="UTF-8" standalone="no"?>
<!-- Created with Inkscape (http://www.inkscape.org/) -->

<svg
   xmlns:dc="http://purl.org/dc/elements/1.1/"
   xmlns:cc="http://creativecommons.org/ns#"
   xmlns:rdf="http://www.w3.org/1999/02/22-rdf-syntax-ns#"
   xmlns:svg="http://www.w3.org/2000/svg"
   xmlns="http://www.w3.org/2000/svg"
   xmlns:sodipodi="http://sodipodi.sourceforge.net/DTD/sodipodi-0.dtd"
   xmlns:inkscape="http://www.inkscape.org/namespaces/inkscape"
   width="210mm"
   height="297mm"
   viewBox="0 0 744.09448819 1052.3622047"
   id="svg2"
   version="1.1"
   inkscape:version="0.91 r13725"
   sodipodi:docname="R.svg">
  <defs
     id="defs4">
    <pattern
       y="0"
       x="0"
       height="6"
       width="6"
       patternUnits="userSpaceOnUse"
       id="EMFhbasepattern" />
    <pattern
       y="0"
       x="0"
       height="6"
       width="6"
       patternUnits="userSpaceOnUse"
       id="EMFhbasepattern-8" />
  </defs>
  <sodipodi:namedview
     id="base"
     pagecolor="#ffffff"
     bordercolor="#666666"
     borderopacity="1.0"
     inkscape:pageopacity="0.0"
     inkscape:pageshadow="2"
     inkscape:zoom="0.7"
     inkscape:cx="274.01811"
     inkscape:cy="644.00506"
     inkscape:document-units="px"
     inkscape:current-layer="layer1"
     showgrid="false"
     inkscape:window-width="1920"
     inkscape:window-height="1057"
     inkscape:window-x="-8"
     inkscape:window-y="-8"
     inkscape:window-maximized="1"
     showborder="false" />
  <metadata
     id="metadata7">
    <rdf:RDF>
      <cc:Work
         rdf:about="">
        <dc:format>image/svg+xml</dc:format>
        <dc:type
           rdf:resource="http://purl.org/dc/dcmitype/StillImage" />
        <dc:title></dc:title>
      </cc:Work>
    </rdf:RDF>
  </metadata>
  <g
     inkscape:label="Ebene 1"
     inkscape:groupmode="layer"
     id="layer1">
    <path
       style="fill:#23acff;fill-opacity:1;fill-rule:evenodd;stroke:none;stroke-width:1px;stroke-linecap:butt;stroke-linejoin:miter;stroke-opacity:1"
       d="M 305.82227 242.33594 L 305.83789 243.24023 C 270.76509 243.76746 257.54297 267.10946 257.54297 295.36328 L 257.54297 467.55469 L 217.58398 467.55469 L 257.54297 502.26367 L 257.54297 688.80664 C 257.54297 717.0668 270.77085 740.41454 305.86133 740.93164 L 305.86328 741.11914 L 306.82227 517.12891 C 336.17377 517.12891 360.0057 515.36313 380.50586 511.73633 L 512.6582 741.22461 C 543.82259 723.23184 543.73854 696.06426 529.44922 671.31445 L 429.05859 497.43359 C 436.51376 494.19243 443.67585 490.54099 450.74609 486.45898 C 527.38036 432.61703 549.8832 363.04532 540.56641 290.13086 L 539.69922 290.15039 C 538.96615 255.43821 515.71007 242.33594 487.58594 242.33594 L 305.82227 242.33594 z M 310.18164 291.61914 C 371.20444 291.64781 432.22719 291.71439 493.25 291.7832 C 500.86189 347.79446 480.30797 399.17973 414.27148 450.24219 C 411.55044 452.41249 408.48937 454.30556 405.11914 455.9707 L 335.5 335.38477 L 310.18164 291.61914 z M 306.9082 383.92969 L 354.42188 466.43945 C 340.33288 467.33999 324.46433 467.55469 306.83594 467.55469 C 306.84996 439.6798 306.8838 411.80474 306.9082 383.92969 z "
       id="path4144-7-2" />
  </g>
</svg>
