<?xml version="1.0" encoding="UTF-8" standalone="no"?>
<!-- Created with Inkscape (http://www.inkscape.org/) -->

<svg
   xmlns:dc="http://purl.org/dc/elements/1.1/"
   xmlns:cc="http://creativecommons.org/ns#"
   xmlns:rdf="http://www.w3.org/1999/02/22-rdf-syntax-ns#"
   xmlns:svg="http://www.w3.org/2000/svg"
   xmlns="http://www.w3.org/2000/svg"
   xmlns:sodipodi="http://sodipodi.sourceforge.net/DTD/sodipodi-0.dtd"
   xmlns:inkscape="http://www.inkscape.org/namespaces/inkscape"
   width="210mm"
   height="297mm"
   viewBox="0 0 744.09448819 1052.3622047"
   id="svg6028"
   version="1.1"
   inkscape:version="0.91 r13725"
   sodipodi:docname="W.svg">
  <defs
     id="defs6030" />
  <sodipodi:namedview
     id="base"
     pagecolor="#ffffff"
     bordercolor="#666666"
     borderopacity="1.0"
     inkscape:pageopacity="0.0"
     inkscape:pageshadow="2"
     inkscape:zoom="0.7"
     inkscape:cx="-677.52419"
     inkscape:cy="475.52593"
     inkscape:document-units="px"
     inkscape:current-layer="layer1"
     showgrid="false"
     showborder="false"
     inkscape:window-width="1920"
     inkscape:window-height="1057"
     inkscape:window-x="-8"
     inkscape:window-y="-8"
     inkscape:window-maximized="1" />
  <metadata
     id="metadata6033">
    <rdf:RDF>
      <cc:Work
         rdf:about="">
        <dc:format>image/svg+xml</dc:format>
        <dc:type
           rdf:resource="http://purl.org/dc/dcmitype/StillImage" />
        <dc:title></dc:title>
      </cc:Work>
    </rdf:RDF>
  </metadata>
  <g
     inkscape:label="Ebene 1"
     inkscape:groupmode="layer"
     id="layer1">
    <path
       style="fill:#d96565;fill-opacity:1;fill-rule:evenodd;stroke:none;stroke-width:1px;stroke-linecap:butt;stroke-linejoin:miter;stroke-opacity:1"
       d="M -295.97461 389.19727 L -249.82617 428.82031 L -249.70312 538.19531 L -249.8457 538.19531 L -249.8457 825.91602 L -249.8418 829.29492 C -368.1499 804.73982 -391.57031 719.5431 -391.57031 596.18164 L -391.57031 557.66992 L -438.85547 503.23047 L -440 501.91406 L -441.14453 503.23047 L -488.42969 557.66992 L -488.42969 596.18164 C -488.42969 719.5428 -511.84884 804.73959 -630.15625 829.29492 L -630.1543 825.91602 L -630.1543 554.35742 L -630.18945 554.35547 L -630.05078 431.25 L -581.6582 389.70117 L -630.65039 389.70117 L -630.65234 389.76172 C -666.14426 390.04799 -679.5 413.49484 -679.5 441.89844 L -679.5 558.23828 L -679.45703 558.23633 L -679.15039 831.98242 C -679.15039 833.20965 -679.11957 834.41864 -679.07227 835.61914 C -689.14976 836.25621 -699.72354 836.58984 -710.85547 836.58984 L -668.35352 884.57227 C -655.08645 884.57227 -642.52469 883.78716 -630.62695 882.28516 C -630.48354 882.28616 -630.34729 882.29457 -630.20312 882.29492 L -630.20312 882.23242 C -496.83148 865.17995 -447.7688 756.96452 -440 633.43555 C -432.23119 756.96513 -383.16792 865.1805 -249.79492 882.23242 L -249.79492 882.29492 C -249.65134 882.29392 -249.51589 882.28616 -249.37305 882.28516 C -237.47531 883.78716 -224.91355 884.57227 -211.64648 884.57227 L -169.14453 836.58984 C -180.27663 836.58984 -190.8501 836.25623 -200.92773 835.61914 C -200.88033 834.41863 -200.84766 833.20966 -200.84766 831.98242 L -200.53906 557.72656 L -200.375 557.73242 L -200.375 441.39258 C -200.375 413.59421 -213.1646 390.54126 -246.98047 389.30273 L -246.98242 389.19727 L -295.97461 389.19727 z "
       id="path4142-3-4" />
  </g>
</svg>
